<svg width="195" height="98" viewBox="0 0 195 98" fill="none" xmlns="http://www.w3.org/2000/svg">
<path d="M0 34.7273C0 30.309 3.58172 26.7273 8 26.7273H59.4385L94.3717 0L127.219 26.7273H187C191.418 26.7273 195 30.309 195 34.7273V90C195 94.4183 191.418 98 187 98H8C3.58172 98 0 94.4183 0 90V34.7273Z" fill="#696969"/>
<path d="M11.328 57.5435V47.0795H19.136V57.5435H17.28V48.6475H13.184V57.5435H11.328ZM24.8528 57.7355C24.3621 57.7355 23.8928 57.6448 23.4448 57.4635C22.9968 57.2822 22.5968 57.0155 22.2448 56.6635C21.9034 56.3115 21.6314 55.8795 21.4288 55.3675C21.2261 54.8555 21.1248 54.2742 21.1248 53.6235C21.1248 52.9728 21.2261 52.3915 21.4288 51.8795C21.6314 51.3675 21.9034 50.9355 22.2448 50.5835C22.5968 50.2315 22.9968 49.9648 23.4448 49.7835C23.8928 49.5915 24.3621 49.4955 24.8528 49.4955C25.3434 49.4955 25.8128 49.5915 26.2608 49.7835C26.7194 49.9648 27.1194 50.2315 27.4608 50.5835C27.8021 50.9355 28.0741 51.3675 28.2768 51.8795C28.4901 52.3915 28.5968 52.9728 28.5968 53.6235C28.5968 54.2742 28.4901 54.8555 28.2768 55.3675C28.0741 55.8795 27.8021 56.3115 27.4608 56.6635C27.1194 57.0155 26.7194 57.2822 26.2608 57.4635C25.8128 57.6448 25.3434 57.7355 24.8528 57.7355ZM24.8528 56.2315C25.4288 56.2315 25.8821 55.9968 26.2128 55.5275C26.5434 55.0475 26.7088 54.4128 26.7088 53.6235C26.7088 52.8235 26.5434 52.1888 26.2128 51.7195C25.8821 51.2395 25.4288 50.9995 24.8528 50.9995C24.2768 50.9995 23.8234 51.2395 23.4928 51.7195C23.1728 52.1888 23.0128 52.8235 23.0128 53.6235C23.0128 54.4128 23.1728 55.0475 23.4928 55.5275C23.8234 55.9968 24.2768 56.2315 24.8528 56.2315ZM30.21 57.7355C29.9007 57.7355 29.6233 57.6822 29.378 57.5755L29.698 55.9115C29.7513 55.9328 29.8047 55.9488 29.858 55.9595C29.922 55.9702 29.9967 55.9755 30.082 55.9755C30.3273 55.9755 30.53 55.8688 30.69 55.6555C30.85 55.4315 30.962 55.0688 31.026 54.5675C31.1327 53.7462 31.2287 52.9355 31.314 52.1355C31.41 51.3248 31.5007 50.5088 31.586 49.6875H36.914V57.5435H35.074V51.1435H33.058C32.9727 51.7942 32.8927 52.4502 32.818 53.1115C32.7433 53.7622 32.6633 54.4128 32.578 55.0635C32.4607 55.9382 32.2047 56.6048 31.81 57.0635C31.4153 57.5115 30.882 57.7355 30.21 57.7355ZM39.7741 60.7755C39.5608 60.7755 39.3741 60.7595 39.2141 60.7275C39.0541 60.7062 38.8995 60.6688 38.7501 60.6155L39.0861 59.1755C39.1608 59.1968 39.2461 59.2182 39.3421 59.2395C39.4488 59.2715 39.5501 59.2875 39.6461 59.2875C40.0621 59.2875 40.3928 59.1595 40.6381 58.9035C40.8941 58.6582 41.0861 58.3382 41.2141 57.9435L41.3581 57.4475L38.2701 49.6875H40.1421L41.5021 53.5435C41.6195 53.8848 41.7315 54.2475 41.8381 54.6315C41.9555 55.0048 42.0728 55.3782 42.1901 55.7515H42.2541C42.3501 55.3888 42.4461 55.0208 42.5421 54.6475C42.6488 54.2635 42.7501 53.8955 42.8461 53.5435L44.0301 49.6875H45.8061L42.9581 57.8955C42.7981 58.3435 42.6221 58.7435 42.4301 59.0955C42.2381 59.4475 42.0141 59.7462 41.7581 59.9915C41.5128 60.2475 41.2248 60.4395 40.8941 60.5675C40.5741 60.7062 40.2008 60.7755 39.7741 60.7755ZM51.488 57.5435V54.6475C51.2427 54.7008 51.0187 54.7382 50.816 54.7595C50.624 54.7808 50.3627 54.7915 50.032 54.7915C49.552 54.7915 49.1147 54.7382 48.72 54.6315C48.336 54.5248 48.0053 54.3595 47.728 54.1355C47.4507 53.9008 47.2373 53.6022 47.088 53.2395C46.9387 52.8662 46.864 52.4182 46.864 51.8955V49.6875H48.704V51.8955C48.704 52.3862 48.8373 52.7488 49.104 52.9835C49.3707 53.2075 49.808 53.3195 50.416 53.3195C50.7893 53.3195 51.1467 53.2822 51.488 53.2075V49.6875H53.328V57.5435H51.488ZM55.668 57.5435V49.6875H57.46V52.3915C57.46 52.7968 57.4387 53.2502 57.396 53.7515C57.364 54.2422 57.332 54.7382 57.3 55.2395H57.348C57.4867 54.9942 57.652 54.7168 57.844 54.4075C58.036 54.0875 58.196 53.8102 58.324 53.5755L60.82 49.6875H62.516V57.5435H60.724V54.8395C60.724 54.4342 60.74 53.9862 60.772 53.4955C60.8147 52.9942 60.8573 52.4928 60.9 51.9915H60.836C60.6973 52.2368 60.532 52.5195 60.34 52.8395C60.1587 53.1488 59.9987 53.4208 59.86 53.6555L57.364 57.5435H55.668ZM66.5675 57.5435V51.1435H64.1035V49.6875H70.8875V51.1435H68.4235V57.5435H66.5675ZM72.4649 57.5435V49.6875H74.3049V52.3755H75.4889C75.9582 52.3755 76.3902 52.4235 76.7849 52.5195C77.1902 52.6155 77.5369 52.7648 77.8249 52.9675C78.1129 53.1702 78.3369 53.4368 78.4969 53.7675C78.6569 54.0875 78.7369 54.4768 78.7369 54.9355C78.7369 55.4048 78.6569 55.8048 78.4969 56.1355C78.3369 56.4662 78.1129 56.7382 77.8249 56.9515C77.5369 57.1542 77.1902 57.3035 76.7849 57.3995C76.3902 57.4955 75.9582 57.5435 75.4889 57.5435H72.4649ZM74.3049 56.1195H75.3609C76.4275 56.1195 76.9609 55.7195 76.9609 54.9195C76.9609 54.1515 76.4275 53.7675 75.3609 53.7675H74.3049V56.1195ZM86.9465 57.7355C86.4558 57.7355 85.9865 57.6448 85.5385 57.4635C85.0905 57.2822 84.6905 57.0155 84.3385 56.6635C83.9972 56.3115 83.7252 55.8795 83.5225 55.3675C83.3198 54.8555 83.2185 54.2742 83.2185 53.6235C83.2185 52.9728 83.3198 52.3915 83.5225 51.8795C83.7252 51.3675 83.9972 50.9355 84.3385 50.5835C84.6905 50.2315 85.0905 49.9648 85.5385 49.7835C85.9865 49.5915 86.4558 49.4955 86.9465 49.4955C87.4372 49.4955 87.9065 49.5915 88.3545 49.7835C88.8132 49.9648 89.2132 50.2315 89.5545 50.5835C89.8958 50.9355 90.1678 51.3675 90.3705 51.8795C90.5838 52.3915 90.6905 52.9728 90.6905 53.6235C90.6905 54.2742 90.5838 54.8555 90.3705 55.3675C90.1678 55.8795 89.8958 56.3115 89.5545 56.6635C89.2132 57.0155 88.8132 57.2822 88.3545 57.4635C87.9065 57.6448 87.4372 57.7355 86.9465 57.7355ZM86.9465 56.2315C87.5225 56.2315 87.9758 55.9968 88.3065 55.5275C88.6372 55.0475 88.8025 54.4128 88.8025 53.6235C88.8025 52.8235 88.6372 52.1888 88.3065 51.7195C87.9758 51.2395 87.5225 50.9995 86.9465 50.9995C86.3705 50.9995 85.9172 51.2395 85.5865 51.7195C85.2665 52.1888 85.1065 52.8235 85.1065 53.6235C85.1065 54.4128 85.2665 55.0475 85.5865 55.5275C85.9172 55.9968 86.3705 56.2315 86.9465 56.2315ZM93.8644 57.5435V51.1435H91.4004V49.6875H98.1844V51.1435H95.7204V57.5435H93.8644ZM104.082 57.5435V54.6475C103.836 54.7008 103.612 54.7382 103.41 54.7595C103.218 54.7808 102.956 54.7915 102.626 54.7915C102.146 54.7915 101.708 54.7382 101.314 54.6315C100.93 54.5248 100.599 54.3595 100.322 54.1355C100.044 53.9008 99.8311 53.6022 99.6818 53.2395C99.5324 52.8662 99.4578 52.4182 99.4578 51.8955V49.6875H101.298V51.8955C101.298 52.3862 101.431 52.7488 101.698 52.9835C101.964 53.2075 102.402 53.3195 103.01 53.3195C103.383 53.3195 103.74 53.2822 104.082 53.2075V49.6875H105.922V57.5435H104.082ZM111.622 57.7355C111.078 57.7355 110.571 57.6448 110.102 57.4635C109.632 57.2715 109.222 56.9995 108.87 56.6475C108.518 56.2955 108.24 55.8688 108.038 55.3675C107.846 54.8555 107.75 54.2742 107.75 53.6235C107.75 52.9835 107.851 52.4075 108.054 51.8955C108.256 51.3835 108.523 50.9515 108.854 50.5995C109.195 50.2475 109.584 49.9755 110.022 49.7835C110.459 49.5915 110.907 49.4955 111.366 49.4955C111.899 49.4955 112.368 49.5862 112.774 49.7675C113.179 49.9488 113.515 50.2048 113.782 50.5355C114.059 50.8662 114.267 51.2608 114.406 51.7195C114.544 52.1782 114.614 52.6795 114.614 53.2235C114.614 53.4048 114.603 53.5755 114.582 53.7355C114.571 53.8955 114.555 54.0235 114.534 54.1195H109.542C109.627 54.8235 109.872 55.3675 110.278 55.7515C110.694 56.1248 111.222 56.3115 111.862 56.3115C112.203 56.3115 112.518 56.2635 112.806 56.1675C113.104 56.0608 113.398 55.9168 113.686 55.7355L114.31 56.8875C113.936 57.1328 113.52 57.3355 113.062 57.4955C112.603 57.6555 112.123 57.7355 111.622 57.7355ZM109.526 52.8715H113.014C113.014 52.2635 112.88 51.7888 112.614 51.4475C112.358 51.0955 111.958 50.9195 111.414 50.9195C110.944 50.9195 110.534 51.0848 110.182 51.4155C109.83 51.7462 109.611 52.2315 109.526 52.8715ZM117.927 57.5435V51.1435H115.463V49.6875H122.247V51.1435H119.783V57.5435H117.927ZM11.168 77.5435V69.6875H12.96V72.3915C12.96 72.7968 12.9387 73.2502 12.896 73.7515C12.864 74.2422 12.832 74.7382 12.8 75.2395H12.848C12.9867 74.9942 13.152 74.7168 13.344 74.4075C13.536 74.0875 13.696 73.8102 13.824 73.5755L16.32 69.6875H18.016V77.5435H16.224V74.8395C16.224 74.4342 16.24 73.9862 16.272 73.4955C16.3147 72.9942 16.3573 72.4928 16.4 71.9915H16.336C16.1973 72.2368 16.032 72.5195 15.84 72.8395C15.6587 73.1488 15.4987 73.4208 15.36 73.6555L12.864 77.5435H11.168ZM26.8386 77.7355C26.3053 77.7355 25.804 77.6448 25.3346 77.4635C24.876 77.2822 24.476 77.0155 24.1346 76.6635C23.7933 76.3115 23.5266 75.8795 23.3346 75.3675C23.1426 74.8555 23.0466 74.2742 23.0466 73.6235C23.0466 72.9728 23.1533 72.3915 23.3666 71.8795C23.58 71.3675 23.868 70.9355 24.2306 70.5835C24.5933 70.2315 25.0093 69.9648 25.4786 69.7835C25.9586 69.5915 26.46 69.4955 26.9826 69.4955C27.4946 69.4955 27.932 69.5808 28.2946 69.7515C28.668 69.9222 28.9986 70.1302 29.2866 70.3755L28.3906 71.5755C28.1773 71.3942 27.964 71.2555 27.7506 71.1595C27.548 71.0528 27.324 70.9995 27.0786 70.9995C26.4386 70.9995 25.9213 71.2395 25.5266 71.7195C25.132 72.1888 24.9346 72.8235 24.9346 73.6235C24.9346 74.4128 25.1266 75.0475 25.5106 75.5275C25.9053 75.9968 26.412 76.2315 27.0306 76.2315C27.34 76.2315 27.628 76.1675 27.8946 76.0395C28.172 75.9008 28.4226 75.7408 28.6466 75.5595L29.3986 76.7755C29.0253 77.0955 28.6146 77.3355 28.1666 77.4955C27.7293 77.6555 27.2866 77.7355 26.8386 77.7355ZM30.9493 77.5435V69.6875H37.6213V77.5435H35.7813V71.1435H32.7893V77.5435H30.9493ZM43.3405 77.7355C42.7965 77.7355 42.2898 77.6448 41.8205 77.4635C41.3512 77.2715 40.9405 76.9995 40.5885 76.6475C40.2365 76.2955 39.9592 75.8688 39.7565 75.3675C39.5645 74.8555 39.4685 74.2742 39.4685 73.6235C39.4685 72.9835 39.5698 72.4075 39.7725 71.8955C39.9752 71.3835 40.2418 70.9515 40.5725 70.5995C40.9138 70.2475 41.3032 69.9755 41.7405 69.7835C42.1778 69.5915 42.6258 69.4955 43.0845 69.4955C43.6178 69.4955 44.0872 69.5862 44.4925 69.7675C44.8978 69.9488 45.2338 70.2048 45.5005 70.5355C45.7778 70.8662 45.9858 71.2608 46.1245 71.7195C46.2632 72.1782 46.3325 72.6795 46.3325 73.2235C46.3325 73.4048 46.3218 73.5755 46.3005 73.7355C46.2898 73.8955 46.2738 74.0235 46.2525 74.1195H41.2605C41.3458 74.8235 41.5912 75.3675 41.9965 75.7515C42.4125 76.1248 42.9405 76.3115 43.5805 76.3115C43.9218 76.3115 44.2365 76.2635 44.5245 76.1675C44.8232 76.0608 45.1165 75.9168 45.4045 75.7355L46.0285 76.8875C45.6552 77.1328 45.2392 77.3355 44.7805 77.4955C44.3218 77.6555 43.8418 77.7355 43.3405 77.7355ZM41.2445 72.8715H44.7325C44.7325 72.2635 44.5992 71.7888 44.3325 71.4475C44.0765 71.0955 43.6765 70.9195 43.1325 70.9195C42.6632 70.9195 42.2525 71.0848 41.9005 71.4155C41.5485 71.7462 41.3298 72.2315 41.2445 72.8715ZM48.0899 77.5435V69.6875H49.9299V76.0715H52.8419V69.6875H54.6819V76.0715H55.8819V77.2715L55.6899 80.2955H54.1059V77.5435H48.0899ZM57.293 77.5435V69.6875H59.085V72.3915C59.085 72.7968 59.0637 73.2502 59.021 73.7515C58.989 74.2422 58.957 74.7382 58.925 75.2395H58.973C59.1117 74.9942 59.277 74.7168 59.469 74.4075C59.661 74.0875 59.821 73.8102 59.949 73.5755L62.445 69.6875H64.141V77.5435H62.349V74.8395C62.349 74.4342 62.365 73.9862 62.397 73.4955C62.4397 72.9942 62.4823 72.4928 62.525 71.9915H62.461C62.3223 72.2368 62.157 72.5195 61.965 72.8395C61.7837 73.1488 61.6237 73.4208 61.485 73.6555L58.989 77.5435H57.293ZM68.3845 77.7355C67.6912 77.7355 67.1312 77.5275 66.7045 77.1115C66.2778 76.6848 66.0645 76.1248 66.0645 75.4315C66.0645 75.0155 66.1498 74.6475 66.3205 74.3275C66.5018 73.9968 66.7792 73.7142 67.1525 73.4795C67.5365 73.2448 68.0165 73.0475 68.5925 72.8875C69.1792 72.7275 69.8778 72.6048 70.6885 72.5195C70.6778 72.3168 70.6458 72.1248 70.5925 71.9435C70.5498 71.7515 70.4698 71.5862 70.3525 71.4475C70.2458 71.2982 70.1018 71.1862 69.9205 71.1115C69.7392 71.0262 69.5152 70.9835 69.2485 70.9835C68.8645 70.9835 68.4858 71.0582 68.1125 71.2075C67.7498 71.3568 67.3925 71.5382 67.0405 71.7515L66.3685 70.5195C66.8058 70.2422 67.2965 70.0022 67.8405 69.7995C68.3845 69.5968 68.9712 69.4955 69.6005 69.4955C70.5818 69.4955 71.3125 69.7888 71.7925 70.3755C72.2832 70.9515 72.5285 71.7888 72.5285 72.8875V77.5435H71.0085L70.8805 76.6795H70.8165C70.4645 76.9782 70.0858 77.2288 69.6805 77.4315C69.2858 77.6342 68.8538 77.7355 68.3845 77.7355ZM68.9765 76.2955C69.2965 76.2955 69.5845 76.2208 69.8405 76.0715C70.1072 75.9222 70.3898 75.7088 70.6885 75.4315V73.6715C70.1552 73.7355 69.7072 73.8208 69.3445 73.9275C68.9818 74.0342 68.6885 74.1568 68.4645 74.2955C68.2405 74.4235 68.0805 74.5728 67.9845 74.7435C67.8885 74.9142 67.8405 75.0955 67.8405 75.2875C67.8405 75.6395 67.9472 75.8955 68.1605 76.0555C68.3738 76.2155 68.6458 76.2955 68.9765 76.2955ZM74.5225 77.7355C74.2132 77.7355 73.9358 77.6822 73.6905 77.5755L74.0105 75.9115C74.0638 75.9328 74.1172 75.9488 74.1705 75.9595C74.2345 75.9702 74.3092 75.9755 74.3945 75.9755C74.6398 75.9755 74.8425 75.8688 75.0025 75.6555C75.1625 75.4315 75.2745 75.0688 75.3385 74.5675C75.4452 73.7462 75.5412 72.9355 75.6265 72.1355C75.7225 71.3248 75.8132 70.5088 75.8985 69.6875H81.2265V77.5435H79.3865V71.1435H77.3705C77.2852 71.7942 77.2052 72.4502 77.1305 73.1115C77.0558 73.7622 76.9758 74.4128 76.8905 75.0635C76.7732 75.9382 76.5172 76.6048 76.1225 77.0635C75.7278 77.5115 75.1945 77.7355 74.5225 77.7355ZM83.5586 77.5435V69.6875H85.3986V72.3755H86.5826C87.052 72.3755 87.484 72.4235 87.8786 72.5195C88.284 72.6155 88.6306 72.7648 88.9186 72.9675C89.2066 73.1702 89.4306 73.4368 89.5906 73.7675C89.7506 74.0875 89.8306 74.4768 89.8306 74.9355C89.8306 75.4048 89.7506 75.8048 89.5906 76.1355C89.4306 76.4662 89.2066 76.7382 88.9186 76.9515C88.6306 77.1542 88.284 77.3035 87.8786 77.3995C87.484 77.4955 87.052 77.5435 86.5826 77.5435H83.5586ZM85.3986 76.1195H86.4546C87.5213 76.1195 88.0546 75.7195 88.0546 74.9195C88.0546 74.1515 87.5213 73.7675 86.4546 73.7675H85.3986V76.1195ZM91.6211 77.5435V69.6875H93.4611V72.6955H96.5971V69.6875H98.4371V77.5435H96.5971V74.3115H93.4611V77.5435H91.6211ZM100.777 77.5435V69.6875H102.617V72.3755H103.449C103.919 72.3755 104.351 72.4235 104.745 72.5195C105.151 72.6155 105.497 72.7648 105.785 72.9675C106.073 73.1702 106.297 73.4368 106.457 73.7675C106.628 74.0875 106.713 74.4768 106.713 74.9355C106.713 75.4048 106.628 75.8048 106.457 76.1355C106.297 76.4662 106.073 76.7382 105.785 76.9515C105.497 77.1542 105.151 77.3035 104.745 77.3995C104.351 77.4955 103.919 77.5435 103.449 77.5435H100.777ZM102.617 76.1195H103.337C104.393 76.1195 104.921 75.7195 104.921 74.9195C104.921 74.1515 104.393 73.7675 103.337 73.7675H102.617V76.1195ZM107.913 77.5435V69.6875H109.753V77.5435H107.913ZM115.45 77.7355C114.906 77.7355 114.399 77.6448 113.93 77.4635C113.461 77.2715 113.05 76.9995 112.698 76.6475C112.346 76.2955 112.069 75.8688 111.866 75.3675C111.674 74.8555 111.578 74.2742 111.578 73.6235C111.578 72.9835 111.679 72.4075 111.882 71.8955C112.085 71.3835 112.351 70.9515 112.682 70.5995C113.023 70.2475 113.413 69.9755 113.85 69.7835C114.287 69.5915 114.735 69.4955 115.194 69.4955C115.727 69.4955 116.197 69.5862 116.602 69.7675C117.007 69.9488 117.343 70.2048 117.61 70.5355C117.887 70.8662 118.095 71.2608 118.234 71.7195C118.373 72.1782 118.442 72.6795 118.442 73.2235C118.442 73.4048 118.431 73.5755 118.41 73.7355C118.399 73.8955 118.383 74.0235 118.362 74.1195H113.37C113.455 74.8235 113.701 75.3675 114.106 75.7515C114.522 76.1248 115.05 76.3115 115.69 76.3115C116.031 76.3115 116.346 76.2635 116.634 76.1675C116.933 76.0608 117.226 75.9168 117.514 75.7355L118.138 76.8875C117.765 77.1328 117.349 77.3355 116.89 77.4955C116.431 77.6555 115.951 77.7355 115.45 77.7355ZM113.354 72.8715H116.842C116.842 72.2635 116.709 71.7888 116.442 71.4475C116.186 71.0955 115.786 70.9195 115.242 70.9195C114.773 70.9195 114.362 71.0848 114.01 71.4155C113.658 71.7462 113.439 72.2315 113.354 72.8715ZM123.93 80.7755C123.717 80.7755 123.53 80.7595 123.37 80.7275C123.21 80.7062 123.056 80.6688 122.906 80.6155L123.242 79.1755C123.317 79.1968 123.402 79.2182 123.498 79.2395C123.605 79.2715 123.706 79.2875 123.802 79.2875C124.218 79.2875 124.549 79.1595 124.794 78.9035C125.05 78.6582 125.242 78.3382 125.37 77.9435L125.514 77.4475L122.426 69.6875H124.298L125.658 73.5435C125.776 73.8848 125.888 74.2475 125.994 74.6315C126.112 75.0048 126.229 75.3782 126.346 75.7515H126.41C126.506 75.3888 126.602 75.0208 126.698 74.6475C126.805 74.2635 126.906 73.8955 127.002 73.5435L128.186 69.6875H129.962L127.114 77.8955C126.954 78.3435 126.778 78.7435 126.586 79.0955C126.394 79.4475 126.17 79.7462 125.914 79.9915C125.669 80.2475 125.381 80.4395 125.05 80.5675C124.73 80.7062 124.357 80.7755 123.93 80.7755ZM134.511 77.7355C133.977 77.7355 133.476 77.6448 133.007 77.4635C132.548 77.2822 132.148 77.0155 131.807 76.6635C131.465 76.3115 131.199 75.8795 131.007 75.3675C130.815 74.8555 130.719 74.2742 130.719 73.6235C130.719 72.9728 130.825 72.3915 131.039 71.8795C131.252 71.3675 131.54 70.9355 131.903 70.5835C132.265 70.2315 132.681 69.9648 133.151 69.7835C133.631 69.5915 134.132 69.4955 134.655 69.4955C135.167 69.4955 135.604 69.5808 135.967 69.7515C136.34 69.9222 136.671 70.1302 136.959 70.3755L136.063 71.5755C135.849 71.3942 135.636 71.2555 135.423 71.1595C135.22 71.0528 134.996 70.9995 134.751 70.9995C134.111 70.9995 133.593 71.2395 133.199 71.7195C132.804 72.1888 132.607 72.8235 132.607 73.6235C132.607 74.4128 132.799 75.0475 133.183 75.5275C133.577 75.9968 134.084 76.2315 134.703 76.2315C135.012 76.2315 135.3 76.1675 135.567 76.0395C135.844 75.9008 136.095 75.7408 136.319 75.5595L137.071 76.7755C136.697 77.0955 136.287 77.3355 135.839 77.4955C135.401 77.6555 134.959 77.7355 134.511 77.7355ZM138.538 77.7355C138.229 77.7355 137.951 77.6822 137.706 77.5755L138.026 75.9115C138.079 75.9328 138.133 75.9488 138.186 75.9595C138.25 75.9702 138.325 75.9755 138.41 75.9755C138.655 75.9755 138.858 75.8688 139.018 75.6555C139.178 75.4315 139.29 75.0688 139.354 74.5675C139.461 73.7462 139.557 72.9355 139.642 72.1355C139.738 71.3248 139.829 70.5088 139.914 69.6875H145.242V77.5435H143.402V71.1435H141.386C141.301 71.7942 141.221 72.4502 141.146 73.1115C141.071 73.7622 140.991 74.4128 140.906 75.0635C140.789 75.9382 140.533 76.6048 140.138 77.0635C139.743 77.5115 139.21 77.7355 138.538 77.7355ZM150.79 77.7355C150.3 77.7355 149.83 77.6448 149.382 77.4635C148.934 77.2822 148.534 77.0155 148.182 76.6635C147.841 76.3115 147.569 75.8795 147.366 75.3675C147.164 74.8555 147.062 74.2742 147.062 73.6235C147.062 72.9728 147.164 72.3915 147.366 71.8795C147.569 71.3675 147.841 70.9355 148.182 70.5835C148.534 70.2315 148.934 69.9648 149.382 69.7835C149.83 69.5915 150.3 69.4955 150.79 69.4955C151.281 69.4955 151.75 69.5915 152.198 69.7835C152.657 69.9648 153.057 70.2315 153.398 70.5835C153.74 70.9355 154.012 71.3675 154.214 71.8795C154.428 72.3915 154.534 72.9728 154.534 73.6235C154.534 74.2742 154.428 74.8555 154.214 75.3675C154.012 75.8795 153.74 76.3115 153.398 76.6635C153.057 77.0155 152.657 77.2822 152.198 77.4635C151.75 77.6448 151.281 77.7355 150.79 77.7355ZM150.79 76.2315C151.366 76.2315 151.82 75.9968 152.15 75.5275C152.481 75.0475 152.646 74.4128 152.646 73.6235C152.646 72.8235 152.481 72.1888 152.15 71.7195C151.82 71.2395 151.366 70.9995 150.79 70.9995C150.214 70.9995 149.761 71.2395 149.43 71.7195C149.11 72.1888 148.95 72.8235 148.95 73.6235C148.95 74.4128 149.11 75.0475 149.43 75.5275C149.761 75.9968 150.214 76.2315 150.79 76.2315ZM156.356 77.5435V69.6875H159.54C159.977 69.6875 160.377 69.7248 160.74 69.7995C161.113 69.8635 161.433 69.9755 161.7 70.1355C161.977 70.2955 162.19 70.5088 162.34 70.7755C162.5 71.0315 162.58 71.3462 162.58 71.7195C162.58 72.1035 162.468 72.4448 162.244 72.7435C162.03 73.0315 161.705 73.2395 161.268 73.3675V73.4315C161.737 73.5488 162.126 73.7515 162.436 74.0395C162.745 74.3275 162.9 74.7435 162.9 75.2875C162.9 75.6822 162.814 76.0235 162.644 76.3115C162.484 76.5888 162.26 76.8235 161.972 77.0155C161.684 77.1968 161.342 77.3302 160.948 77.4155C160.564 77.5008 160.148 77.5435 159.7 77.5435H156.356ZM158.164 72.8715H159.364C159.876 72.8715 160.244 72.7862 160.468 72.6155C160.692 72.4448 160.804 72.2102 160.804 71.9115C160.804 71.6022 160.697 71.3622 160.484 71.1915C160.27 71.0208 159.913 70.9355 159.411 70.9355H158.164V72.8715ZM158.164 76.2955H159.572C160.105 76.2955 160.489 76.1942 160.724 75.9915C160.969 75.7888 161.092 75.5168 161.092 75.1755C161.092 74.8555 160.964 74.5995 160.708 74.4075C160.452 74.2155 160.052 74.1195 159.508 74.1195H158.164V76.2955ZM164.637 77.5435V69.6875H166.429V72.3915C166.429 72.7968 166.407 73.2502 166.365 73.7515C166.333 74.2422 166.301 74.7382 166.269 75.2395H166.317C166.455 74.9942 166.621 74.7168 166.813 74.4075C167.005 74.0875 167.165 73.8102 167.293 73.5755L169.789 69.6875H171.485V77.5435H169.693V74.8395C169.693 74.4342 169.709 73.9862 169.741 73.4955C169.783 72.9942 169.826 72.4928 169.869 71.9915H169.805C169.666 72.2368 169.501 72.5195 169.309 72.8395C169.127 73.1488 168.967 73.4208 168.829 73.6555L166.333 77.5435H164.637ZM178.112 77.5435V74.7275H176.96H176.928L175.088 77.5435H173.024L175.248 74.4075C174.8 74.2155 174.427 73.9382 174.128 73.5755C173.84 73.2128 173.696 72.7382 173.696 72.1515C173.696 71.6928 173.776 71.3088 173.936 70.9995C174.107 70.6795 174.331 70.4235 174.608 70.2315C174.896 70.0395 175.232 69.9008 175.616 69.8155C176.011 69.7302 176.432 69.6875 176.88 69.6875H179.952V77.5435H178.112ZM177.136 73.4315H178.112V71.0635H177.136C176.624 71.0635 176.224 71.1542 175.936 71.3355C175.659 71.5168 175.52 71.8048 175.52 72.1995C175.52 72.5835 175.659 72.8875 175.936 73.1115C176.224 73.3248 176.624 73.4315 177.136 73.4315Z" fill="white"/>
</svg>
