<svg width="17" height="20" viewBox="0 0 17 20" fill="none" xmlns="http://www.w3.org/2000/svg">
<path d="M9.5 7H15L9.5 1.5V7ZM2.5 0H10.5L16.5 6V18C16.5 18.5304 16.2893 19.0391 15.9142 19.4142C15.5391 19.7893 15.0304 20 14.5 20H2.5C1.39 20 0.5 19.1 0.5 18V2C0.5 0.89 1.39 0 2.5 0ZM10.5 16C11.0523 16 11.5 15.5523 11.5 15C11.5 14.4477 11.0523 14 10.5 14H3.5C2.94772 14 2.5 14.4477 2.5 15C2.5 15.5523 2.94772 16 3.5 16H10.5ZM13.5 12C14.0523 12 14.5 11.5523 14.5 11C14.5 10.4477 14.0523 10 13.5 10H3.5C2.94772 10 2.5 10.4477 2.5 11C2.5 11.5523 2.94772 12 3.5 12H13.5Z" fill="#4582EF"/>
</svg>
