<svg width="97" height="105" viewBox="0 0 97 105" fill="none" xmlns="http://www.w3.org/2000/svg">
<g filter="url(#filter0_d_72_454)">
<rect x="77.1465" y="18.1467" width="57" height="57" rx="28.5" transform="rotate(90.2945 77.1465 18.1467)" fill="white" fill-opacity="0.6" shape-rendering="crispEdges"/>
<path d="M56.8701 45.4065C57.4977 45.4097 58.0038 45.9211 58.0006 46.5487C57.9974 47.1763 57.486 47.6824 56.8584 47.6792L43.601 47.6111L49.2728 53.0399C49.7581 53.5044 49.7541 54.2811 49.264 54.7407C48.81 55.1664 48.1024 55.1627 47.6528 54.7324L40.526 47.9108C39.6973 47.1177 39.7042 45.7916 40.5409 45.007L47.7374 38.2591C48.1915 37.8334 48.8991 37.837 49.3487 38.2674C49.834 38.7319 49.83 39.5086 49.34 39.9681L43.6127 45.3384L56.8701 45.4065Z" fill="#8C8C8C"/>
</g>
<defs>
<filter id="filter0_d_72_454" x="-0.146484" y="-0.14624" width="105.293" height="105.292" filterUnits="userSpaceOnUse" color-interpolation-filters="sRGB">
<feFlood flood-opacity="0" result="BackgroundImageFix"/>
<feColorMatrix in="SourceAlpha" type="matrix" values="0 0 0 0 0 0 0 0 0 0 0 0 0 0 0 0 0 0 127 0" result="hardAlpha"/>
<feMorphology radius="10" operator="dilate" in="SourceAlpha" result="effect1_dropShadow_72_454"/>
<feOffset dx="4" dy="6"/>
<feGaussianBlur stdDeviation="7"/>
<feComposite in2="hardAlpha" operator="out"/>
<feColorMatrix type="matrix" values="0 0 0 0 0.0941176 0 0 0 0 0.0745098 0 0 0 0 0.207843 0 0 0 0.08 0"/>
<feBlend mode="normal" in2="BackgroundImageFix" result="effect1_dropShadow_72_454"/>
<feBlend mode="normal" in="SourceGraphic" in2="effect1_dropShadow_72_454" result="shape"/>
</filter>
</defs>
</svg>
