<svg width="32" height="32" viewBox="0 0 32 32" fill="none" xmlns="http://www.w3.org/2000/svg">
<rect width="32" height="32" rx="8" fill="#45B2EF"/>
<path d="M8.54064 15.0378L18.6704 10.5865C19.6721 10.1186 23.0529 8.63483 23.0529 8.63483C23.0529 8.63483 24.6181 7.97982 24.4929 9.55718C24.4428 10.2122 24.0922 12.4847 23.7541 14.9443C23.2282 18.4198 22.6647 22.2161 22.6647 22.2161C22.6647 22.2161 22.5771 23.2855 21.8383 23.4727C21.0996 23.6598 19.885 22.831 19.6721 22.6439C19.4593 22.4568 16.4041 20.4115 15.2771 19.3956C14.9766 19.1149 14.626 18.5535 15.3272 17.9118C16.8924 16.3746 18.7581 14.4764 19.885 13.2733C20.4109 12.7119 20.9243 11.4153 18.7581 12.9926C15.6653 15.2651 12.6351 17.4039 12.6351 17.4039C12.6351 17.4039 11.9339 17.8584 10.6317 17.444C9.32948 17.0296 7.80189 16.4681 7.80189 16.4681C7.80189 16.4681 6.76261 15.773 8.54064 15.0378Z" fill="white"/>
</svg>
