<svg width="32" height="32" viewBox="0 0 32 32" fill="none" xmlns="http://www.w3.org/2000/svg">
<g id="social logo">
<path id="Vector" fill-rule="evenodd" clip-rule="evenodd" d="M11.0882 0H20.9118C29.8772 0 32 2.12279 32 11.0882V20.9118C32 29.8772 29.8772 32 20.9118 32H11.0882C2.12279 32 0 29.8772 0 20.9118V11.0882C0 2.12279 2.12279 0 11.0882 0Z" fill="#25D366"/>
<path id="Vector_2" fill-rule="evenodd" clip-rule="evenodd" d="M16.6613 24.5179H16.6578C15.2202 24.5174 13.8077 24.1567 12.5532 23.4724L8 24.6668L9.21851 20.216C8.46692 18.9134 8.07138 17.4359 8.07204 15.922C8.07391 11.1864 11.927 7.3335 16.6612 7.3335C18.9589 7.33449 21.1154 8.229 22.7371 9.85249C24.3587 11.4759 25.2513 13.6339 25.2504 15.9288C25.2485 20.6635 21.3969 24.5159 16.6613 24.5179ZM12.7642 21.9175L13.0249 22.0722C14.121 22.7227 15.3774 23.0668 16.6584 23.0673H16.6613C20.5961 23.0673 23.7985 19.8647 23.8002 15.9284C23.8009 14.0208 23.0591 12.2272 21.7112 10.8778C20.3634 9.5284 18.5709 8.78487 16.6641 8.78421C12.7263 8.78421 9.52377 11.9865 9.5222 15.9226C9.52166 17.2715 9.89908 18.5852 10.6137 19.7218L10.7834 19.9919L10.0622 22.6263L12.7642 21.9175ZM20.6945 17.778C20.8442 17.8504 20.9453 17.8992 20.9884 17.9713C21.0421 18.0608 21.0421 18.4905 20.8633 18.9918C20.6844 19.4932 19.827 19.9507 19.4147 20.0123C19.0449 20.0676 18.5771 20.0907 18.063 19.9272C17.7512 19.8284 17.3515 19.6963 16.8395 19.4752C14.8275 18.6064 13.4678 16.6564 13.2109 16.2879C13.1929 16.262 13.1803 16.244 13.1733 16.2346L13.1715 16.2323C13.058 16.0808 12.2969 15.0654 12.2969 14.0145C12.2969 13.0259 12.7826 12.5078 13.0061 12.2693C13.0214 12.253 13.0355 12.2379 13.0481 12.2241C13.2448 12.0093 13.4773 11.9555 13.6204 11.9555C13.7635 11.9555 13.9066 11.9569 14.0317 11.9632C14.0471 11.964 14.0632 11.9638 14.0798 11.9637C14.2049 11.963 14.3607 11.9621 14.5146 12.3316C14.5737 12.4737 14.6603 12.6846 14.7516 12.9069C14.9363 13.3565 15.1404 13.8532 15.1762 13.9251C15.2299 14.0325 15.2657 14.1578 15.1942 14.3011C15.1834 14.3226 15.1735 14.3428 15.164 14.3622C15.1103 14.4719 15.0707 14.5526 14.9796 14.6591C14.9437 14.7009 14.9066 14.7461 14.8695 14.7912C14.7957 14.8811 14.7219 14.9711 14.6576 15.0351C14.5502 15.1421 14.4383 15.2582 14.5635 15.4731C14.6887 15.6879 15.1194 16.3907 15.7574 16.9598C16.4433 17.5715 17.0393 17.8301 17.3415 17.9611C17.4004 17.9868 17.4482 18.0075 17.4833 18.025C17.6978 18.1325 17.8231 18.1145 17.9482 17.9713C18.0734 17.828 18.4847 17.3446 18.6278 17.1298C18.7709 16.915 18.914 16.9508 19.1107 17.0224C19.3074 17.0941 20.3625 17.6132 20.5771 17.7206C20.619 17.7416 20.6582 17.7605 20.6945 17.778Z" fill="white"/>
</g>
</svg>
